<svg height="auto" viewBox="0 0 2569 1468" xmlns="http://www.w3.org/2000/svg"><path d="M0 15.286c21.4 4.673 64.2 13.985 107 23.362 42.8 9.378 64.2 6.21 107 23.525 42.8 17.314 64.2 42.293 107 63.049 42.8 20.755 64.2 32.753 107 40.728 42.8 7.976 64.2-10.543 107-.853s64.2-2.496 107 49.303c42.8 51.798 64.2 162.625 107 209.69 42.8 47.064 64.2 40.637 107 25.632 42.8-15.005 64.2-119.718 107-100.658 42.8 19.06 64.2 162.377 107 195.956 42.8 33.578 64.2-48.164 107-28.064s64.2 91.666 107 128.562c42.8 36.897 64.2 40.2 107 55.92 42.8 15.72 64.2-4.73 107 22.68s64.2 100.775 107 114.37c42.8 13.595 64.2-10.33 107-46.395 42.8-36.066 64.2-177.003 107-133.936 42.8 43.067 64.2 254.04 107 349.272s64.2 124.741 107 126.888c42.8 2.148 64.2-125.452 107-116.152 42.8 9.3 64.2 115.26 107 162.65s64.2 45.126 107 74.296c42.8 29.17 64.2 59.766 107 71.555 42.8 11.788 85.6-10.09 107-12.613l1 153.947H0Z" fill="#4f46e51a"/><path d="M0 15.286c21.4 4.673 64.2 13.985 107 23.362 42.8 9.378 64.2 6.21 107 23.525 42.8 17.314 64.2 42.293 107 63.049 42.8 20.755 64.2 32.753 107 40.728 42.8 7.976 64.2-10.543 107-.853s64.2-2.496 107 49.303c42.8 51.798 64.2 162.625 107 209.69 42.8 47.064 64.2 40.637 107 25.632 42.8-15.005 64.2-119.718 107-100.658 42.8 19.06 64.2 162.377 107 195.956 42.8 33.578 64.2-48.164 107-28.064s64.2 91.666 107 128.562c42.8 36.897 64.2 40.2 107 55.92 42.8 15.72 64.2-4.73 107 22.68s64.2 100.775 107 114.37c42.8 13.595 64.2-10.33 107-46.395 42.8-36.066 64.2-177.003 107-133.936 42.8 43.067 64.2 254.04 107 349.272s64.2 124.741 107 126.888c42.8 2.148 64.2-125.452 107-116.152 42.8 9.3 64.2 115.26 107 162.65s64.2 45.126 107 74.296c42.8 29.17 64.2 59.766 107 71.555 42.8 11.788 85.6-10.09 107-12.613" fill="none" stroke="#4f46e5" stroke-width="2"/><g fill="#4f46e5"><circle cy="15.286" r="6"/><circle cx="107" cy="38.648" r="6"/><circle cx="214" cy="62.173" r="6"/><circle cx="321" cy="125.222" r="6"/><circle cx="428" cy="165.95" r="6"/><circle cx="535" cy="165.097" r="6"/><circle cx="642" cy="214.4" r="6"/><circle cx="749" cy="424.089" r="6"/><circle cx="856" cy="449.722" r="6"/><circle cx="963" cy="349.064" r="6"/><circle cx="1070" cy="545.02" r="6"/><circle cx="1177" cy="516.956" r="6"/><circle cx="1284" cy="645.518" r="6"/><circle cx="1391" cy="701.438" r="6"/><circle cx="1498" cy="724.118" r="6"/><circle cx="1605" cy="838.488" r="6"/><circle cx="1712" cy="792.093" r="6"/><circle cx="1819" cy="658.157" r="6"/><circle cx="1926" cy="1007.429" r="6"/><circle cx="2033" cy="1134.317" r="6"/><circle cx="2140" cy="1018.165" r="6"/><circle cx="2247" cy="1180.815" r="6"/><circle cx="2354" cy="1255.111" r="6"/><circle cx="2461" cy="1326.666" r="6"/><circle cx="2568" cy="1314.053" r="6"/></g></svg>